<svg version="1.2" xmlns="http://www.w3.org/2000/svg" viewBox="0 0 510 510" width="510" height="510">
	<title>shopping-cart-svg</title>
	<style>
		.s0 { fill: #ffffff } 
	</style>
	<g id="Layer">
		<g id="shopping-cart">
			<path id="Layer" class="s0" d="m204 459c0 28.1-22.9 51-51 51-28 0-51-22.9-51-51 0-28.1 23-51 51-51 28.1 0 51 22.9 51 51zm-119.8-459l22.9 51h377.4c15.3 0 25.5 10.2 25.5 25.5 0 5.1 0 7.7-5.1 12.8l-91.8 165.7c-7.7 15.3-23 25.5-43.4 25.5h-188.7l-22.9 43.3v2.6c0 2.6 2.5 5.1 5.1 5.1h295.8v51h-306c-28.1 0-51-22.9-51-51 0-7.6 2.5-17.9 5.1-25.5l35.7-61.2-91.8-193.8h-51v-51zm374.8 459c0 28.1-22.9 51-51 51-28 0-51-22.9-51-51 0-28 23-51 51-51 28.1 0 51 23 51 51z"/>
		</g>
	</g>
	<g id="Layer">
	</g>
	<g id="Layer">
	</g>
	<g id="Layer">
	</g>
	<g id="Layer">
	</g>
	<g id="Layer">
	</g>
	<g id="Layer">
	</g>
	<g id="Layer">
	</g>
	<g id="Layer">
	</g>
	<g id="Layer">
	</g>
	<g id="Layer">
	</g>
	<g id="Layer">
	</g>
	<g id="Layer">
	</g>
	<g id="Layer">
	</g>
	<g id="Layer">
	</g>
	<g id="Layer">
	</g>
</svg>